<?xml version="1.0" standalone="no"?>
<!DOCTYPE svg PUBLIC "-//W3C//DTD SVG 20010904//EN"
 "http://www.w3.org/TR/2001/REC-SVG-20010904/DTD/svg10.dtd">
<svg version="1.0" xmlns="http://www.w3.org/2000/svg"
 width="800.000000pt" height="800.000000pt" viewBox="0 0 800.000000 800.000000"
 preserveAspectRatio="xMidYMid meet">
<metadata>
Created by potrace 1.14, written by Peter Selinger 2001-2017
</metadata>
<g transform="translate(0.000000,800.000000) scale(0.100000,-0.100000)"
fill="#000000" stroke="none">
<path d="M6776 7450 c-21 -10 -69 -28 -109 -40 -329 -98 -352 -106 -363 -133
-5 -12 -7 -274 -4 -592 l5 -570 78 -52 c44 -29 82 -53 85 -53 3 0 22 -11 41
-23 20 -13 62 -41 93 -61 l58 -37 2 -1487 c2 -818 7 -1492 11 -1499 6 -9 14
-10 32 -1 14 6 25 15 25 21 0 5 8 6 17 3 11 -4 24 2 37 17 12 13 37 29 56 37
19 7 47 22 62 32 14 10 32 18 40 19 7 0 45 18 83 39 130 73 164 90 180 90 8 0
15 5 15 11 0 5 5 7 10 4 6 -3 10 -1 10 5 0 7 6 10 14 7 8 -3 16 -2 18 2 5 12
85 61 106 64 11 2 31 11 46 20 l26 17 0 1916 c0 1519 -3 1918 -12 1927 -13 12
-27 19 -101 52 -24 10 -35 21 -31 28 4 7 4 9 -1 5 -6 -6 -40 8 -95 41 -8 5
-41 24 -72 42 -31 18 -54 37 -51 42 3 6 1 7 -6 3 -6 -4 -22 -1 -35 8 -13 8
-54 31 -92 51 -38 20 -71 40 -74 44 -12 19 -69 19 -104 1z"/>
<path d="M4805 6803 c-11 -8 -48 -28 -82 -43 -33 -16 -68 -36 -76 -44 -8 -8
-45 -29 -83 -47 -38 -18 -109 -57 -157 -86 -48 -29 -90 -53 -92 -53 -2 0 -27
-13 -55 -30 -27 -16 -50 -27 -50 -24 0 4 -7 0 -16 -7 -21 -17 -50 -34 -94 -55
-19 -9 -45 -25 -59 -35 -13 -10 -32 -19 -42 -19 -11 0 -19 -4 -19 -9 0 -5 -10
-13 -22 -17 -13 -3 -36 -16 -51 -26 -16 -11 -31 -18 -33 -15 -3 3 -14 -2 -25
-11 -11 -9 -22 -15 -24 -12 -3 3 -11 -4 -19 -16 -8 -11 -33 -26 -55 -34 -23
-7 -41 -17 -41 -22 0 -4 -8 -8 -18 -8 -10 0 -23 -5 -28 -10 -13 -13 -62 -42
-119 -71 -22 -11 -58 -30 -80 -43 -61 -35 -130 -73 -234 -127 -52 -28 -107
-59 -122 -70 -15 -11 -43 -25 -61 -31 -18 -6 -39 -18 -46 -25 -18 -18 -35 -16
-28 3 3 9 2 12 -5 9 -6 -4 -8 -12 -6 -19 6 -15 -87 -61 -102 -52 -7 4 -8 1 -5
-8 4 -11 0 -13 -15 -9 -13 3 -21 1 -21 -6 0 -7 -4 -10 -9 -6 -6 3 -15 -3 -20
-14 -6 -11 -27 -25 -46 -31 -19 -6 -35 -16 -35 -21 0 -5 -4 -9 -9 -9 -15 0
-52 -18 -96 -45 -22 -14 -65 -37 -95 -52 -30 -15 -57 -29 -60 -33 -16 -17
-145 -80 -165 -80 -8 0 -15 -5 -15 -11 0 -6 -7 -9 -15 -5 -8 3 -15 1 -15 -4 0
-6 -7 -10 -15 -10 -8 0 -15 -3 -15 -7 0 -13 -183 -113 -206 -113 -7 0 -14 -6
-17 -14 -3 -7 -18 -17 -33 -20 -15 -4 -40 -16 -56 -27 -15 -11 -34 -17 -40
-13 -8 4 -9 3 -5 -2 5 -5 -45 -35 -114 -69 -129 -63 -152 -82 -133 -113 6 -10
15 -38 19 -62 4 -25 14 -54 21 -65 7 -11 18 -45 24 -75 6 -30 17 -68 24 -85
31 -73 37 -95 30 -106 -4 -7 -3 -10 2 -6 5 3 20 -29 33 -71 14 -43 32 -88 41
-102 8 -14 21 -43 29 -65 7 -22 16 -49 21 -60 5 -11 25 -60 45 -110 21 -49 50
-117 65 -150 16 -33 39 -82 51 -110 12 -27 25 -52 29 -55 3 -3 22 -39 41 -80
18 -41 36 -77 40 -80 3 -3 17 -30 32 -60 37 -78 106 -203 115 -210 5 -3 12
-12 15 -20 4 -8 18 -33 32 -55 14 -22 28 -47 32 -55 3 -8 17 -28 30 -43 13
-16 21 -33 17 -38 -3 -5 -1 -9 5 -9 6 0 18 -15 27 -33 16 -30 27 -46 82 -114
12 -15 25 -41 29 -57 3 -16 14 -31 25 -33 10 -3 18 -8 18 -12 0 -14 165 -220
257 -321 24 -26 40 -50 36 -53 -3 -4 1 -7 9 -7 9 0 21 -13 28 -30 7 -16 16
-28 20 -27 10 3 85 -75 82 -85 -1 -5 3 -8 9 -8 15 0 105 -90 102 -101 -2 -5 0
-8 5 -7 12 3 152 -134 152 -150 0 -8 6 -12 15 -8 9 3 15 0 15 -8 0 -8 9 -16
20 -19 25 -6 27 -37 3 -38 -10 0 -13 -3 -6 -5 7 -3 20 -1 31 5 22 12 64 -12
56 -32 -2 -7 3 -21 12 -32 13 -17 15 -17 10 -2 -7 23 9 22 26 -2 7 -10 23 -21
35 -25 11 -4 28 -18 37 -31 9 -14 23 -25 32 -25 20 0 147 -90 127 -90 -4 -1 9
-9 30 -19 20 -9 34 -20 30 -24 -3 -4 1 -7 11 -7 24 0 66 -30 66 -47 0 -8 4
-11 10 -8 8 5 145 -67 160 -85 3 -3 36 -21 73 -40 38 -18 74 -38 80 -44 7 -6
39 -22 72 -35 33 -14 62 -27 65 -31 3 -4 28 -15 55 -25 28 -10 63 -27 79 -38
15 -11 35 -21 45 -22 9 -1 33 -9 53 -18 21 -9 42 -17 48 -17 5 0 10 -4 10 -8
0 -4 12 -9 26 -10 15 -1 32 -6 38 -10 6 -5 36 -14 66 -21 30 -7 75 -19 100
-26 25 -7 58 -16 73 -20 21 -4 27 -10 23 -22 -5 -13 -4 -14 8 -4 8 7 29 15 46
18 18 2 66 24 107 49 41 24 79 44 84 44 5 0 9 4 9 9 0 5 10 13 23 17 12 3 30
13 39 21 9 8 22 12 27 8 6 -3 14 1 17 10 4 9 13 14 21 11 8 -3 11 -2 8 4 -5 8
46 42 61 39 4 0 10 4 13 9 7 10 71 46 84 47 4 0 18 9 30 21 12 11 36 27 52 36
17 8 59 32 95 52 35 21 72 35 82 33 11 -3 18 0 18 9 0 8 8 18 18 21 9 4 19 10
22 14 8 11 97 59 110 59 6 0 20 9 32 20 32 29 99 62 115 56 9 -4 13 0 11 10
-3 14 60 59 120 84 12 5 35 19 50 30 16 12 35 22 43 24 8 1 34 16 58 34 24 18
48 32 53 32 5 0 18 9 30 20 12 11 30 20 39 20 10 0 29 11 43 25 14 14 32 25
41 25 9 0 28 9 42 20 14 11 32 20 39 20 8 0 14 4 14 10 0 5 7 7 15 3 10 -3 15
-1 13 7 -2 8 11 18 30 23 17 5 32 14 32 18 0 5 7 9 15 9 9 0 18 7 21 15 3 8
25 24 47 35 23 12 51 26 62 33 11 7 43 27 72 45 30 17 55 32 58 32 2 0 44 24
92 53 49 30 93 52 99 50 6 -2 33 14 60 35 27 22 79 56 116 75 37 20 86 48 108
62 22 14 44 25 48 25 5 0 20 8 33 18 39 30 117 71 123 65 3 -4 6 -1 6 5 0 7 7
12 16 12 9 0 12 5 8 12 -5 8 -2 9 9 5 10 -3 17 -2 17 3 0 6 4 10 10 10 5 0 28
12 49 27 43 30 52 61 26 83 -8 7 -12 17 -8 23 4 6 1 7 -6 2 -14 -8 -71 41 -71
62 0 25 -51 27 -94 5 -23 -12 -45 -22 -51 -22 -5 0 -23 -11 -39 -25 -17 -15
-36 -23 -45 -20 -9 3 -12 3 -8 -1 9 -9 -52 -54 -74 -54 -9 0 -19 -6 -22 -14
-3 -8 -19 -17 -36 -21 -16 -3 -35 -13 -42 -21 -6 -8 -17 -14 -24 -14 -8 0 -26
-11 -42 -24 -16 -14 -74 -48 -128 -76 -55 -29 -106 -57 -113 -63 -10 -8 -16
-7 -24 4 -8 11 -9 10 -4 -4 4 -13 -2 -21 -22 -30 -15 -7 -49 -25 -75 -41 -26
-16 -51 -26 -54 -22 -3 3 -13 -4 -21 -16 -15 -21 -16 -21 -23 -2 -7 18 -8 18
-8 -2 -1 -24 -52 -54 -93 -54 -17 0 -19 -3 -9 -9 11 -7 6 -13 -20 -27 -56 -31
-94 -47 -101 -46 -5 1 -8 -2 -8 -7 0 -5 -16 -15 -35 -22 -19 -7 -35 -16 -35
-20 0 -4 -8 -9 -17 -13 -10 -3 -36 -17 -58 -30 -22 -14 -50 -25 -62 -26 -13 0
-23 -5 -23 -10 0 -6 -12 -16 -27 -23 -16 -6 -30 -14 -33 -17 -10 -10 -158 -90
-167 -90 -2 0 -1 6 3 13 5 6 -6 -2 -22 -18 -17 -17 -53 -41 -80 -55 -27 -14
-55 -31 -62 -37 -7 -7 -19 -13 -26 -13 -8 0 -19 -7 -26 -15 -7 -8 -17 -12 -22
-9 -5 3 -22 -5 -36 -19 -15 -14 -38 -28 -52 -32 -14 -4 -37 -16 -52 -26 -14
-11 -31 -19 -37 -19 -6 0 -11 -4 -11 -8 0 -4 -20 -16 -45 -26 -25 -11 -45 -23
-45 -28 0 -4 -7 -8 -16 -8 -9 0 -28 -8 -42 -17 -45 -30 -65 -41 -132 -75 -36
-17 -67 -31 -69 -29 -2 1 -8 -4 -13 -13 -5 -9 -14 -16 -21 -16 -7 0 -23 -9
-37 -20 -14 -11 -31 -20 -38 -20 -7 0 -25 -9 -41 -21 -15 -11 -34 -21 -42 -23
-8 -1 -23 -7 -35 -14 -23 -12 -87 0 -114 22 -8 7 -35 23 -60 35 -56 27 -117
63 -204 121 -56 38 -66 49 -63 68 3 17 1 20 -6 13 -22 -22 -34 -17 -112 55
-20 19 -40 34 -44 34 -4 0 -27 18 -51 40 -24 22 -47 40 -51 40 -15 0 -320 311
-314 320 3 5 1 10 -4 10 -14 0 -81 65 -81 79 0 6 -20 32 -45 58 -24 26 -45 53
-45 58 0 6 -9 21 -20 35 -11 14 -51 70 -88 125 -37 55 -73 106 -79 113 -12 12
-15 21 -12 38 0 4 -3 10 -9 13 -10 7 -12 11 -89 162 -29 56 -53 108 -53 115 0
6 -7 14 -15 18 -8 3 -15 12 -15 21 0 15 -17 56 -66 163 -13 29 -24 63 -24 77
0 13 -4 26 -10 30 -5 3 -23 52 -41 108 -17 56 -39 127 -49 157 -10 30 -23 75
-28 100 -6 25 -18 75 -27 112 -10 38 -15 75 -11 83 3 8 2 15 -3 15 -4 0 -8 14
-9 30 0 17 -4 40 -8 53 -4 12 -8 27 -9 32 -1 6 -4 17 -7 25 -22 55 -51 344
-54 535 -4 207 0 260 17 249 5 -3 9 -1 9 5 0 6 21 23 48 38 26 15 50 31 53 36
4 6 14 7 23 4 9 -4 16 -2 16 4 0 5 12 15 28 21 15 7 39 20 53 30 14 9 29 15
33 11 3 -3 6 -1 6 5 0 7 6 12 14 12 8 0 21 6 28 13 7 7 27 20 43 29 17 8 63
34 104 57 40 24 82 44 94 47 11 2 30 11 41 21 12 10 39 27 61 38 22 10 55 30
73 43 18 13 44 25 56 26 13 2 34 13 47 25 12 11 68 44 123 72 56 28 108 57
117 65 9 8 19 11 22 7 4 -3 7 -1 7 5 0 6 28 25 63 42 34 16 81 41 105 55 23
14 42 22 42 18 0 -4 10 3 23 14 12 11 53 35 90 53 38 19 71 38 73 42 3 4 12 8
20 8 8 0 20 5 27 10 26 22 86 58 108 65 13 4 35 15 49 24 41 28 63 40 96 55
17 8 35 19 38 25 4 6 16 11 27 11 10 0 19 4 19 9 0 5 14 14 32 20 17 6 39 18
49 27 9 8 44 26 76 39 97 39 95 85 -6 185 -25 25 -62 65 -81 89 -19 24 -41 49
-48 57 -8 8 -11 23 -7 36 5 18 4 19 -4 8 -8 -12 -21 -3 -72 50 -34 36 -71 81
-84 100 -12 19 -36 42 -51 52 -26 14 -31 15 -49 1z"/>
<path d="M5760 6503 c-8 -3 -17 -9 -20 -12 -3 -3 -21 -14 -40 -24 -43 -21
-119 -65 -185 -105 -27 -17 -66 -39 -85 -49 -19 -9 -41 -23 -48 -30 -7 -7 -20
-13 -28 -13 -8 0 -14 -4 -14 -8 0 -5 -16 -14 -35 -22 -19 -8 -35 -18 -35 -23
0 -5 -5 -7 -12 -5 -6 2 -21 -5 -34 -16 -12 -12 -49 -34 -81 -51 -32 -16 -65
-35 -73 -41 -8 -6 -35 -22 -60 -36 -25 -13 -56 -31 -70 -40 -14 -8 -171 -100
-350 -202 -179 -103 -332 -191 -340 -196 -8 -5 -53 -30 -100 -57 -47 -26 -87
-49 -90 -52 -3 -4 -18 -13 -35 -21 -16 -8 -32 -17 -35 -20 -7 -7 -58 -36 -105
-60 -46 -23 -74 -40 -93 -57 -7 -7 -20 -13 -27 -13 -7 0 -20 -6 -28 -14 -7 -8
-40 -28 -72 -45 -32 -17 -63 -35 -69 -40 -6 -5 -40 -24 -76 -42 -36 -19 -67
-37 -70 -40 -3 -3 -34 -21 -69 -40 -36 -19 -71 -39 -78 -46 -25 -22 -14 -405
17 -608 6 -38 17 -110 25 -160 22 -146 75 -401 87 -420 3 -5 11 -37 18 -70 7
-33 16 -64 20 -70 4 -5 11 -28 15 -50 3 -22 13 -53 20 -70 8 -16 19 -49 25
-72 5 -23 17 -54 25 -70 8 -15 15 -35 15 -43 0 -8 6 -27 14 -42 21 -40 40
-101 37 -118 -2 -8 1 -11 5 -7 8 8 64 -97 64 -120 0 -7 4 -13 9 -13 11 0 33
-59 25 -71 -3 -5 1 -9 8 -9 7 0 37 -44 67 -98 30 -53 59 -101 63 -107 52 -63
155 -215 150 -222 -4 -4 -3 -5 2 -1 4 4 25 -12 45 -34 84 -96 92 -103 101 -88
5 9 2 23 -9 39 -25 36 -121 234 -121 249 0 7 -4 12 -10 12 -5 0 -10 4 -10 9 0
5 -8 26 -17 47 -9 22 -17 41 -18 44 -1 3 -7 19 -15 35 -7 17 -18 44 -25 60 -7
17 -20 46 -29 65 -33 75 -56 133 -56 144 -1 6 -9 29 -20 51 -11 22 -19 46 -20
53 0 8 -6 28 -14 45 -7 18 -19 52 -25 77 -7 25 -16 54 -21 65 -5 11 -16 47
-25 80 -9 33 -25 92 -36 130 -24 86 -55 215 -74 315 -8 41 -18 82 -21 90 -21
52 -87 546 -99 738 l-7 112 31 11 c17 6 31 14 31 18 0 4 16 13 35 20 19 7 35
17 35 22 0 5 5 9 11 9 7 0 67 32 135 71 68 39 126 70 130 69 4 -1 10 2 13 7 6
8 42 33 83 58 116 70 153 92 176 105 15 8 49 30 76 48 27 18 55 31 63 28 8 -3
11 -1 8 4 -3 5 9 19 27 30 18 11 40 24 48 30 8 5 38 24 65 42 28 18 52 36 53
40 2 5 8 8 14 8 6 0 25 10 42 23 17 13 39 26 49 30 9 3 17 11 17 17 0 5 5 10
11 10 17 0 519 339 604 408 26 20 37 23 53 11 14 -11 15 -11 5 1 -10 11 -9 17
4 32 9 10 22 18 30 18 7 0 16 7 19 15 4 8 10 12 15 9 5 -3 9 -1 9 3 0 5 12 16
28 25 15 9 36 25 48 36 11 11 31 25 44 32 13 7 29 17 34 22 6 5 38 29 71 53
33 25 67 51 75 58 8 7 33 27 55 43 22 16 42 32 43 37 2 4 8 5 13 2 5 -4 6 1 3
9 -6 17 -10 18 -34 9z"/>
<path d="M3940 6380 c0 -5 5 -10 11 -10 5 0 7 5 4 10 -3 6 -8 10 -11 10 -2 0
-4 -4 -4 -10z"/>
<path d="M5930 6111 c-8 -5 -31 -16 -50 -24 -19 -9 -69 -31 -110 -50 -41 -19
-85 -38 -97 -42 -13 -3 -23 -11 -23 -16 0 -5 -9 -9 -19 -9 -11 0 -46 -15 -79
-34 -32 -18 -75 -36 -95 -40 -68 -13 -66 5 -66 -575 0 -317 4 -521 10 -521 5
0 9 -7 9 -15 0 -8 8 -15 18 -15 25 0 104 -59 95 -72 -3 -6 -1 -8 5 -5 15 10
44 -4 38 -18 -2 -7 3 -12 12 -11 11 1 17 -7 17 -19 1 -11 4 -26 9 -33 5 -8 9
-531 10 -1162 1 -1193 1 -1193 40 -1161 8 7 19 10 25 7 5 -3 23 8 41 24 18 17
49 37 69 46 20 9 44 20 53 25 10 5 25 9 33 9 8 0 15 6 15 14 0 8 12 19 28 25
15 7 38 18 52 26 14 8 33 15 43 15 9 0 17 4 17 9 0 11 66 51 83 51 7 0 28 14
47 31 20 18 41 28 52 26 11 -3 18 0 18 10 0 11 7 13 30 8 27 -6 30 -4 28 16
-2 18 4 26 29 34 17 6 40 18 51 28 10 9 24 17 30 17 7 0 12 4 12 8 0 4 17 14
37 21 20 8 47 23 60 35 l23 22 -2 1528 -3 1528 -75 39 c-41 22 -75 45 -75 52
0 7 -9 11 -19 10 -27 -2 -68 15 -62 26 3 5 -10 11 -29 14 -19 3 -51 17 -72 31
-21 14 -46 26 -55 26 -10 0 -18 5 -18 10 0 6 -9 10 -19 10 -11 0 -23 5 -26 10
-18 29 -112 49 -145 31z"/>
<path d="M5485 5940 c-3 -5 1 -10 9 -10 9 0 16 5 16 10 0 6 -4 10 -9 10 -6 0
-13 -4 -16 -10z"/>
<path d="M6535 5939 c-4 -6 -5 -12 -2 -15 2 -3 7 2 10 11 7 17 1 20 -8 4z"/>
<path d="M4948 4960 c-2 -6 -13 -12 -25 -13 -12 0 -20 -4 -17 -8 2 -3 -17 -12
-41 -19 -25 -7 -45 -17 -45 -22 0 -6 -7 -7 -16 -4 -9 4 -23 1 -30 -5 -8 -6
-14 -8 -14 -4 0 4 -7 2 -15 -5 -8 -6 -19 -9 -24 -6 -5 4 -13 0 -18 -7 -4 -7
-35 -24 -68 -37 -33 -13 -64 -26 -70 -30 -5 -4 -29 -12 -52 -19 -23 -6 -45
-16 -49 -22 -3 -6 -6 -546 -5 -1201 l1 -1190 36 -34 c20 -19 43 -34 51 -34 7
0 16 -7 19 -15 4 -8 11 -15 16 -15 11 0 89 -62 130 -103 15 -15 33 -27 41 -27
7 0 22 -8 33 -18 10 -9 44 -35 74 -57 30 -22 61 -45 68 -52 7 -7 17 -13 22
-13 5 0 7 -6 4 -14 -3 -7 3 -16 13 -20 10 -3 25 -9 33 -12 13 -5 13 -4 0 6
-12 10 -11 11 9 6 16 -3 30 1 40 13 17 19 101 75 101 67 0 -3 12 1 27 9 15 8
31 11 37 8 6 -3 8 -2 3 2 -9 11 116 75 145 75 12 0 19 3 15 6 -7 7 63 46 113
62 l35 12 0 1209 c0 665 -2 1209 -5 1208 -3 -1 -25 12 -50 28 -109 70 -125 80
-130 86 -3 3 -24 16 -47 29 -24 13 -43 27 -43 32 0 4 -6 8 -13 8 -8 0 -24 11
-37 25 -12 13 -25 23 -29 23 -11 -3 -66 30 -85 51 -26 29 -131 60 -138 41z"/>
<path d="M5190 4889 c0 -5 5 -7 10 -4 6 3 10 8 10 11 0 2 -4 4 -10 4 -5 0 -10
-5 -10 -11z"/>
<path d="M5366 4803 c-6 -14 -5 -15 5 -6 7 7 10 15 7 18 -3 3 -9 -2 -12 -12z"/>
<path d="M5476 4698 c3 -5 10 -6 15 -3 13 9 11 12 -6 12 -8 0 -12 -4 -9 -9z"/>
<path d="M1921 3683 c-1 -7 -6 -13 -12 -13 -5 0 -28 -14 -49 -31 -23 -19 -43
-28 -51 -24 -7 5 -10 4 -6 -2 7 -12 -107 -75 -118 -65 -5 4 -5 2 -2 -4 8 -14
-35 -44 -63 -44 -12 0 -19 -4 -16 -9 3 -4 -19 -20 -49 -36 -30 -15 -59 -33
-66 -41 -6 -8 -18 -14 -25 -14 -8 0 -14 -4 -14 -8 0 -10 -70 -37 -87 -34 -7 2
-13 -4 -13 -13 0 -9 -16 -23 -36 -31 -20 -8 -45 -24 -57 -35 -11 -10 -26 -19
-32 -19 -5 0 -33 -15 -60 -34 -28 -18 -61 -37 -75 -41 -14 -4 -34 -15 -45 -25
-18 -15 -77 -50 -155 -92 -55 -29 -176 -103 -188 -115 -7 -7 -24 -13 -36 -13
-13 0 -29 -7 -36 -15 -7 -9 -19 -14 -26 -11 -8 3 -11 0 -8 -9 3 -8 -4 -16 -18
-20 -13 -4 -31 -14 -40 -23 -12 -10 -18 -11 -18 -3 0 7 -5 9 -10 6 -6 -4 -8
-10 -6 -14 3 -4 -23 -23 -57 -41 -34 -18 -79 -41 -99 -52 -21 -11 -38 -24 -38
-29 0 -5 -7 -9 -15 -9 -8 0 -23 -10 -34 -21 -11 -12 -30 -21 -43 -21 -13 0
-31 -11 -41 -24 -18 -25 -14 -54 9 -54 8 0 17 -7 20 -15 4 -8 16 -15 28 -15
25 0 148 -57 158 -73 4 -7 15 -13 25 -13 10 -1 38 -11 63 -22 25 -11 62 -26
83 -33 20 -7 37 -17 37 -21 0 -4 9 -8 19 -8 11 0 23 -4 26 -10 3 -5 15 -10 25
-10 14 0 18 -5 14 -17 -5 -14 -4 -15 4 -4 12 17 30 11 162 -54 109 -54 169
-81 197 -90 13 -3 23 -10 23 -15 0 -4 17 -11 37 -15 20 -4 46 -13 57 -21 11
-8 28 -14 37 -14 9 0 27 -8 40 -19 13 -10 44 -25 69 -34 99 -34 300 -127 300
-139 0 -5 4 -6 10 -3 5 3 39 -8 74 -24 35 -17 66 -31 70 -31 3 0 31 -12 63
-27 32 -14 60 -27 63 -28 5 -1 22 -9 90 -38 14 -6 37 -20 52 -30 16 -10 32
-15 38 -12 5 3 10 2 10 -3 0 -5 18 -14 39 -20 21 -7 72 -27 112 -46 41 -18 76
-33 79 -32 3 0 20 -10 39 -23 18 -13 40 -24 50 -25 9 -1 25 -6 36 -12 11 -6
37 -17 59 -24 44 -14 81 -46 63 -54 -7 -3 0 -3 16 0 16 4 27 2 27 -5 0 -6 7
-8 16 -4 10 4 22 -1 30 -11 7 -10 17 -15 23 -12 14 9 103 -39 93 -49 -4 -5 -2
-5 5 -1 7 4 20 3 30 -2 10 -6 29 -14 43 -20 14 -5 55 -23 91 -41 36 -17 71
-31 77 -31 7 0 12 -4 12 -10 0 -5 7 -10 16 -10 22 0 166 -61 182 -77 7 -7 20
-13 28 -13 8 0 22 -4 32 -10 43 -24 170 -79 194 -85 15 -4 32 -13 39 -21 6 -8
16 -11 22 -7 5 3 16 -2 23 -12 8 -10 17 -16 20 -12 4 4 21 -2 38 -12 17 -10
49 -24 71 -31 22 -7 52 -21 66 -31 14 -10 29 -16 33 -12 3 3 6 1 6 -6 0 -7 4
-10 9 -7 11 7 71 -23 71 -35 0 -6 9 -8 19 -4 11 3 25 -1 34 -10 9 -8 22 -15
30 -15 17 0 77 -30 62 -30 -5 -1 12 -10 38 -21 27 -10 53 -17 58 -13 5 3 12
-2 15 -10 3 -9 9 -14 13 -12 10 6 127 -47 150 -68 11 -10 24 -15 30 -11 13 7
161 -61 161 -75 0 -6 7 -10 15 -10 8 0 23 -4 33 -9 9 -5 37 -15 62 -22 25 -8
61 -22 80 -31 19 -10 40 -18 47 -18 7 0 13 -6 13 -14 0 -19 63 -25 100 -10 17
7 41 24 54 37 13 13 41 32 62 42 21 10 43 22 48 26 40 33 90 69 96 69 4 0 20
11 36 25 16 14 33 25 37 25 8 0 71 44 95 68 7 6 20 12 28 12 8 0 30 15 50 34
19 18 47 39 62 47 15 7 39 22 54 32 16 10 33 15 39 11 7 -4 9 -3 5 4 -3 6 9
22 27 36 37 28 52 33 42 14 -4 -7 3 -1 15 15 12 15 27 27 35 27 7 0 19 7 26
16 7 9 45 36 84 61 38 25 80 55 92 66 12 11 31 25 42 31 11 6 38 21 61 34 23
12 53 33 68 47 15 14 31 23 37 22 5 -2 17 7 26 20 9 14 18 23 20 21 7 -5 87
47 206 134 28 21 54 38 58 38 4 0 24 14 45 30 21 17 41 30 44 30 4 0 31 19 61
41 33 25 62 39 73 37 12 -4 27 7 47 33 16 22 35 39 42 39 8 0 24 9 35 20 13
12 30 18 42 15 12 -3 15 -2 8 1 -16 7 3 34 24 34 7 0 17 6 21 14 4 7 22 21 40
30 18 9 42 26 53 38 17 19 24 21 40 10 27 -16 35 -15 20 3 -10 12 -8 18 11 35
13 10 30 19 37 20 6 0 12 5 12 11 0 5 4 8 9 5 5 -3 11 1 14 9 7 17 104 68 110
57 2 -4 3 -2 1 4 -3 12 48 54 66 54 5 0 27 15 47 34 21 18 52 41 68 50 50 27
69 40 81 55 6 8 18 12 26 9 9 -4 21 4 32 23 9 16 22 29 28 29 6 0 19 6 27 14
21 19 67 25 64 9 -3 -15 13 -17 22 -4 3 5 -2 16 -10 25 -14 14 -11 17 25 38
22 13 43 31 46 41 8 24 -23 57 -52 57 -27 0 -128 36 -161 57 -28 18 -96 11
-122 -14 -22 -20 -217 -133 -230 -133 -5 0 -14 -7 -21 -15 -7 -8 -21 -15 -31
-15 -11 0 -19 -4 -19 -8 0 -5 -12 -15 -27 -23 -16 -7 -42 -24 -59 -36 -17 -13
-33 -23 -36 -23 -3 0 -35 -18 -69 -40 -35 -23 -76 -46 -91 -53 -16 -6 -28 -15
-28 -20 0 -5 -10 -5 -21 -2 -15 5 -19 4 -14 -5 4 -7 -1 -13 -14 -17 -12 -3
-21 -9 -21 -14 0 -5 -6 -9 -14 -9 -7 0 -41 -18 -74 -40 -33 -22 -65 -40 -71
-40 -6 0 -11 -4 -11 -9 0 -5 -16 -15 -35 -21 -19 -6 -35 -16 -35 -21 0 -5 -9
-9 -19 -9 -11 0 -33 -12 -50 -26 -17 -14 -36 -22 -42 -18 -7 4 -9 3 -6 -3 7
-10 -20 -28 -35 -25 -5 1 -8 -3 -8 -8 0 -6 -5 -10 -12 -10 -6 0 -25 -10 -42
-23 -37 -28 -66 -41 -85 -38 -7 1 -10 -2 -7 -8 4 -5 2 -12 -4 -16 -5 -3 -10
-1 -10 4 0 6 -4 11 -10 11 -5 0 -10 -6 -10 -12 0 -12 -70 -68 -85 -68 -4 0
-20 -9 -36 -21 -16 -11 -29 -17 -29 -12 0 4 -4 4 -8 -2 -8 -11 -17 -17 -122
-77 -41 -24 -85 -47 -97 -51 -13 -5 -23 -13 -23 -17 0 -5 -16 -14 -35 -21 -19
-7 -35 -16 -35 -20 0 -4 -16 -13 -35 -20 -19 -7 -35 -16 -35 -21 0 -4 -29 -21
-65 -39 -36 -17 -65 -35 -65 -39 0 -4 -21 -17 -47 -29 -51 -23 -70 -34 -116
-64 -16 -10 -37 -16 -50 -13 -12 3 -16 3 -10 0 23 -10 4 -24 -174 -120 -24
-13 -43 -22 -43 -19 0 2 -12 -7 -27 -21 -34 -32 -50 -29 -174 29 -52 25 -111
50 -131 57 -21 6 -38 16 -38 21 0 5 -9 9 -20 9 -11 0 -23 7 -26 15 -4 8 -16
15 -28 15 -11 0 -34 7 -51 16 -16 9 -109 56 -205 106 -96 49 -182 95 -190 102
-8 8 -42 28 -75 46 -33 18 -70 42 -82 53 -13 11 -23 17 -23 14 0 -8 -69 34
-100 60 -10 9 -26 18 -34 19 -8 1 -39 20 -70 43 -30 23 -58 41 -61 41 -4 0
-12 6 -19 13 -8 6 -24 19 -36 27 -13 8 -37 26 -54 40 -33 27 -62 46 -86 57 -8
4 -33 25 -55 47 -22 23 -46 41 -52 42 -30 2 -34 5 -28 14 3 6 -1 10 -10 10 -8
0 -18 7 -21 15 -4 8 -11 15 -17 15 -6 0 -17 6 -26 14 -61 55 -70 66 -66 78 4
9 -3 14 -20 16 -15 1 -41 18 -62 39 -19 21 -38 38 -42 38 -3 0 -15 9 -26 20
-12 11 -37 33 -58 49 -20 16 -37 38 -37 47 0 13 -5 16 -16 12 -10 -4 -17 1
-21 16 -3 11 -10 21 -16 21 -12 0 -57 47 -57 61 0 5 -6 9 -13 9 -8 0 -63 52
-123 116 -175 187 -184 198 -184 219 0 8 -7 15 -15 15 -8 0 -21 14 -30 30 -9
17 -20 30 -25 30 -5 0 -15 11 -22 24 -7 14 -31 51 -53 83 -22 32 -39 61 -37
66 1 4 -2 7 -7 7 -5 0 -11 10 -14 22 -4 12 -9 19 -13 15 -8 -7 -74 88 -114
163 -14 25 -32 54 -41 65 -9 11 -22 37 -29 57 -6 21 -17 41 -24 45 -7 5 -23
35 -37 68 -13 33 -32 69 -42 80 -11 11 -23 29 -27 40 -5 11 -9 14 -9 8z"/>
<path d="M1945 3680 c3 -5 8 -10 11 -10 2 0 4 5 4 10 0 6 -5 10 -11 10 -5 0
-7 -4 -4 -10z"/>
<path d="M4480 2270 c0 -5 7 -10 15 -10 8 0 15 5 15 10 0 6 -7 10 -15 10 -8 0
-15 -4 -15 -10z"/>
<path d="M3300 2091 c0 -5 7 -11 14 -14 10 -4 13 -1 9 9 -6 15 -23 19 -23 5z"/>
<path d="M5078 1983 c7 -3 16 -2 19 1 4 3 -2 6 -13 5 -11 0 -14 -3 -6 -6z"/>
<path d="M3560 1910 c0 -5 7 -7 15 -4 8 4 15 8 15 10 0 2 -7 4 -15 4 -8 0 -15
-4 -15 -10z"/>
<path d="M3768 1753 c7 -3 16 -2 19 1 4 3 -2 6 -13 5 -11 0 -14 -3 -6 -6z"/>
<path d="M3920 1670 c0 -5 7 -10 16 -10 8 0 12 5 9 10 -3 6 -10 10 -16 10 -5
0 -9 -4 -9 -10z"/>
<path d="M2283 1603 c9 -2 23 -2 30 0 6 3 -1 5 -18 5 -16 0 -22 -2 -12 -5z"/>
<path d="M4338 1413 c7 -3 16 -2 19 1 4 3 -2 6 -13 5 -11 0 -14 -3 -6 -6z"/>
<path d="M3057 1299 c7 -7 15 -10 18 -7 3 3 -2 9 -12 12 -14 6 -15 5 -6 -5z"/>
<path d="M5778 1173 c7 -3 16 -2 19 1 4 3 -2 6 -13 5 -11 0 -14 -3 -6 -6z"/>
</g>
</svg>
